<svg xmlns="http://www.w3.org/2000/svg" width="334" height="75" viewBox="0 0 334 75">
  <defs>
    <style>
      .cls-1 {
        fill-rule: evenodd;
      }
    </style>
  </defs>
  <path class="cls-1" d="M88.5,73.838V49.193a9.584,9.584,0,0,0-9.689-9.657,9.777,9.777,0,0,0-9.69,9.657V73.838H56.633V27.767H69.12v3.319a13.163,13.163,0,0,1,9.69-4.225A22.379,22.379,0,0,1,94.593,33.3a22.713,22.713,0,0,1,6.493,15.893V73.838H88.5Zm35.459-.1A28.418,28.418,0,0,1,110.572,67.2l-1.5-1.207,7.492-8.348,1.4,1.307c4.395,3.722,7.991,4.426,10.289,4.426a8.524,8.524,0,0,0,4.1-.805,3.067,3.067,0,0,0,2.2-3.017c0-1.207-.7-2.716-6.593-3.722-5.394-1.106-8.79-2.213-10.388-3.118a13.6,13.6,0,0,1-5-4.829,13.1,13.1,0,0,1,.6-14.183,14.984,14.984,0,0,1,5.994-4.829,18.019,18.019,0,0,1,7.991-1.609,31.886,31.886,0,0,1,3.2.2A27.449,27.449,0,0,1,142.737,32.9l1.5,1.207-7.093,8.248-1.4-1.107c-3.5-2.816-6.493-3.319-8.291-3.319a8.51,8.51,0,0,0-3.6.7,3.464,3.464,0,0,0-2,2.515c0,1.409,1,2.414,6.193,3.622,6.793,1.609,8.99,2.413,10.389,3.018a15.016,15.016,0,0,1,5,4.225,12.885,12.885,0,0,1,2.2,7.544,13.047,13.047,0,0,1-2.3,7.645,16.307,16.307,0,0,1-6.394,5.332,19.7,19.7,0,0,1-8.29,1.71A28.789,28.789,0,0,1,123.958,73.738ZM159.515,67.9l-0.1-.1a24.534,24.534,0,0,1,0-34.1A24.028,24.028,0,0,1,176.4,26.762,22.887,22.887,0,0,1,193.278,33.7a30.117,30.117,0,0,1,2.5,2.816l1.2,1.811-9.789,7.342-1.4-1.91a12.115,12.115,0,0,0-9.39-5.232c-6.293,0-11.687,5.633-11.687,12.273S170.1,63.075,176.4,63.075c3.5,0,6.993-2.013,9.39-5.432l1.3-1.811,10.188,7.343-1.5,1.912a6.548,6.548,0,0,1-.8.9c-0.5.6-1.1,1.308-1.7,1.912A23.617,23.617,0,0,1,176.4,74.844,23.966,23.966,0,0,1,159.515,67.9Zm48.545-.1a24.16,24.16,0,0,1,0-34,23.544,23.544,0,0,1,16.881-6.941,16.3,16.3,0,0,1,11.288,4.527l0.5,0.4V27.767h12.088v46.07H236.728V70.216l-0.5.5c-3.6,3.521-7.692,4.024-11.288,4.024A23.887,23.887,0,0,1,208.06,67.8Zm5.094-17a11.793,11.793,0,1,0,23.574,0c0-6.538-5.394-12.171-11.787-12.171S213.154,44.265,213.154,50.8ZM261.6,73.838V0h12.986V73.838H261.6Zm45.05,1.106a20.678,20.678,0,0,1-8.69-2.012,21.94,21.94,0,0,1-7.193-5.231,24.331,24.331,0,0,1-6.093-14.083,24.624,24.624,0,0,1-.2-2.816,27.349,27.349,0,0,1,.8-6.236A22.353,22.353,0,0,1,290.764,34a22.809,22.809,0,0,1,7.193-5.331,20.036,20.036,0,0,1,8.79-1.912,19.735,19.735,0,0,1,8.79,1.912A21.062,21.062,0,0,1,322.729,34a23.877,23.877,0,0,1,5.6,10.562,24.341,24.341,0,0,1,.7,6.236v2.313H295.459l0.1,0.7c1.3,6.236,5.993,10.764,11.188,10.764h0.1a15.444,15.444,0,0,0,7.991-3.622l1.1-.906,8.292,7.243-1.5,1.307a20.856,20.856,0,0,1-4,3.017h-0.1a23.977,23.977,0,0,1-11.887,3.319h-0.1Zm-9.79-30.78-0.4.8h20.678l-0.4-.8c-2.3-4.325-6.093-6.941-9.989-6.941S298.956,39.939,296.857,44.163Zm-255.9-10.5c-0.071-.068-0.145-0.132-0.217-0.2a5.819,5.819,0,0,0-8.269,0,5.917,5.917,0,0,0,0,8.327A12.759,12.759,0,0,1,36.16,50.8,12.425,12.425,0,0,1,23.973,63.4,12.425,12.425,0,0,1,11.786,50.8a12.759,12.759,0,0,1,3.691-9.008,5.917,5.917,0,0,0,0-8.327,5.819,5.819,0,0,0-8.269,0c-0.072.068-.146,0.131-0.217,0.2A24.639,24.639,0,0,0,0,50.8,25,25,0,0,0,6.991,67.938a24.552,24.552,0,0,0,16.982,7.055,24.552,24.552,0,0,0,16.982-7.055A25,25,0,0,0,47.947,50.8,24.639,24.639,0,0,0,40.955,33.667ZM23.973,52.077h0a5.027,5.027,0,0,1-4.994-5.029V27.259a5.027,5.027,0,0,1,4.994-5.029h0a5.027,5.027,0,0,1,4.994,5.029V47.048A5.027,5.027,0,0,1,23.973,52.077ZM334,71.446a3.323,3.323,0,1,1-3.313-3.257A3.26,3.26,0,0,1,334,71.446Zm-5.818,0a2.516,2.516,0,0,0,2.524,2.6,2.485,2.485,0,0,0,2.465-2.581A2.5,2.5,0,1,0,328.183,71.446Zm1.993,1.709h-0.75V69.9a6.461,6.461,0,0,1,1.243-.1,2,2,0,0,1,1.124.239,0.906,0.906,0,0,1,.315.715,0.831,0.831,0,0,1-.67.754v0.041a0.96,0.96,0,0,1,.591.794,2.491,2.491,0,0,0,.237.815h-0.809a2.871,2.871,0,0,1-.257-0.8,0.568,0.568,0,0,0-.669-0.516h-0.355v1.311Zm0.019-1.847h0.355c0.414,0,.75-0.139.75-0.477,0-.3-0.217-0.5-0.691-0.5a1.816,1.816,0,0,0-.414.039v0.935Z"/>
</svg>
